<svg width="40" height="40" viewBox="0 0 40 40" fill="none" xmlns="http://www.w3.org/2000/svg">
<path d="M21.375 36.5V19.747C22.1936 19.459 22.9007 18.9207 23.3962 18.2084L35.2116 21.375L35.9239 18.7185L24.092 15.5491C24.0166 14.6019 23.6149 13.7103 22.9554 13.0262C22.2959 12.3422 21.4195 11.9081 20.4757 11.7981L17.5168 0.75L14.8603 1.46363L17.7917 12.4031C16.9372 12.9358 16.3105 13.7664 16.0329 14.7343C15.7553 15.7022 15.8465 16.7387 16.2889 17.6432L7.625 26.3057L9.57063 28.25L18.2331 19.5875C18.3609 19.6471 18.4917 19.6999 18.625 19.7456V36.5H0.75V39.25H39.25V36.5H21.375ZM21.375 15.875C21.375 16.1469 21.2944 16.4128 21.1433 16.6389C20.9922 16.865 20.7774 17.0413 20.5262 17.1453C20.2749 17.2494 19.9985 17.2766 19.7318 17.2236C19.465 17.1705 19.22 17.0396 19.0277 16.8473C18.8354 16.655 18.7045 16.41 18.6514 16.1432C18.5984 15.8765 18.6256 15.6001 18.7297 15.3488C18.8337 15.0976 19.01 14.8828 19.2361 14.7317C19.4622 14.5806 19.7281 14.5 20 14.5C20.3647 14.5 20.7144 14.6449 20.9723 14.9027C21.2301 15.1606 21.375 15.5103 21.375 15.875Z" fill="#15A112"/>
</svg>