<svg width="90" height="90" viewBox="0 0 90 90" fill="none" xmlns="http://www.w3.org/2000/svg">
<path d="M77.3438 16.1719H62.5781V10.5469C62.5781 10.1602 62.2617 9.84375 61.875 9.84375H56.9531C56.5664 9.84375 56.25 10.1602 56.25 10.5469V16.1719H33.75V10.5469C33.75 10.1602 33.4336 9.84375 33.0469 9.84375H28.125C27.7383 9.84375 27.4219 10.1602 27.4219 10.5469V16.1719H12.6562C11.1006 16.1719 9.84375 17.4287 9.84375 18.9844V77.3438C9.84375 78.8994 11.1006 80.1562 12.6562 80.1562H77.3438C78.8994 80.1562 80.1562 78.8994 80.1562 77.3438V18.9844C80.1562 17.4287 78.8994 16.1719 77.3438 16.1719ZM73.8281 73.8281H16.1719V40.4297H73.8281V73.8281ZM16.1719 34.4531V22.5H27.4219V26.7188C27.4219 27.1055 27.7383 27.4219 28.125 27.4219H33.0469C33.4336 27.4219 33.75 27.1055 33.75 26.7188V22.5H56.25V26.7188C56.25 27.1055 56.5664 27.4219 56.9531 27.4219H61.875C62.2617 27.4219 62.5781 27.1055 62.5781 26.7188V22.5H73.8281V34.4531H16.1719Z" fill="#545C56"/>
</svg>