<svg width="90" height="90" viewBox="0 0 90 90" fill="none" xmlns="http://www.w3.org/2000/svg">
<path fill-rule="evenodd" clip-rule="evenodd" d="M49.3198 2.55747C50.6109 1.80362 52.0792 1.40637 53.5742 1.40637C55.0693 1.40637 56.5375 1.80362 57.8286 2.55747L57.8548 2.57247L83.9436 18.6075C85.2288 19.36 86.2948 20.4357 87.0355 21.7277C87.7763 23.0198 88.166 24.4831 88.1661 25.9725V54.1575C88.1661 57.195 86.5461 60.0075 83.9173 61.5375L83.9098 61.5412L39.0448 87.93L39.0298 87.9412C37.7288 88.6959 36.2514 89.0934 34.7473 89.0934C33.2433 89.0934 31.7659 88.6959 30.4648 87.9412L30.3673 87.885L5.9811 71.0025C4.72625 70.245 3.68845 69.1762 2.96834 67.8996C2.24823 66.623 1.87026 65.1819 1.8711 63.7162V35.3925C1.8711 33.9225 2.2461 32.505 2.93609 31.2675L2.94735 31.245L2.99985 31.1475C3.73909 29.8649 4.79866 28.7963 6.07484 28.0462H6.08235L49.3198 2.55372V2.55747ZM52.1586 7.41372H52.1548L9.92984 32.31L33.3598 48.2362C33.7973 48.4736 34.2883 48.5947 34.786 48.5882C35.2836 48.5816 35.7713 48.4475 36.2023 48.1987H36.2061L79.8298 22.6837L54.9711 7.40622C54.5426 7.16108 54.057 7.03306 53.5633 7.03503C53.0696 7.03701 52.5852 7.16891 52.1586 7.41747V7.41372ZM67.4998 36.4087L55.3123 43.5337V71.8387L67.4998 64.6687V36.4087ZM73.1248 33.1162V61.3612L81.0898 56.6737C81.5307 56.4179 81.8967 56.0509 82.1514 55.6093C82.406 55.1678 82.5404 54.6672 82.5411 54.1575V27.6112L73.1248 33.1162ZM39.0373 53.0512L49.6873 46.8262V75.1462L37.5636 82.2787V53.7337C38.0661 53.5575 38.5573 53.3325 39.0298 53.0587L39.0373 53.0512ZM31.9386 82.1287V53.7375C31.427 53.5597 30.9336 53.3337 30.4648 53.0625L30.3786 53.01L7.49609 37.4587V63.72C7.49609 64.7512 8.03984 65.7 8.91735 66.21L9.0111 66.2625L31.9386 82.1325V82.1287Z" fill="#545C56"/>
</svg>