<svg width="68" height="83" viewBox="0 0 68 83" fill="none" xmlns="http://www.w3.org/2000/svg">
<path d="M34 45.25C40.2132 45.25 45.25 40.2132 45.25 34C45.25 27.7868 40.2132 22.75 34 22.75C27.7868 22.75 22.75 27.7868 22.75 34C22.75 40.2132 27.7868 45.25 34 45.25Z" stroke="#545C56" stroke-width="7.5" stroke-linecap="round" stroke-linejoin="round"/>
<path d="M34 4C26.0435 4 18.4129 7.16071 12.7868 12.7868C7.16071 18.4129 4 26.0435 4 34C4 41.095 5.5075 45.7375 9.625 50.875L34 79L58.375 50.875C62.4925 45.7375 64 41.095 64 34C64 26.0435 60.8393 18.4129 55.2132 12.7868C49.5871 7.16071 41.9565 4 34 4V4Z" stroke="#545C56" stroke-width="7.5" stroke-linecap="round" stroke-linejoin="round"/>
</svg>