<svg width="38" height="40" viewBox="0 0 38 40" fill="none" xmlns="http://www.w3.org/2000/svg">
<path d="M11.6667 2.66663C11.6667 4.61155 12.4393 6.47681 13.8146 7.85208C15.1899 9.22734 17.0551 9.99996 19 9.99996C20.945 9.99996 22.8102 9.22734 24.1855 7.85208C25.5608 6.47681 26.3334 4.61155 26.3334 2.66663M4.33338 4.49996H6.16671M31.8334 4.49996H33.6667M19 15.5V17.3333M28.5334 12.2L29.8295 13.4961M9.46671 12.2L8.18338 13.4833M4.33338 30.1666H33.6667M15.3334 22.8333L13.5 37.5M22.6667 22.8333L24.5 37.5M4.84671 37.5H33.1534C33.4321 37.5 33.7071 37.4364 33.9575 37.3142C34.2079 37.1919 34.4272 37.0142 34.5987 36.7945C34.7701 36.5748 34.8892 36.3189 34.9469 36.0463C35.0046 35.7737 34.9994 35.4914 34.9317 35.2211L32.1817 24.2211C32.0824 23.8247 31.8535 23.4728 31.5313 23.2213C31.2091 22.9699 30.8121 22.8333 30.4034 22.8333H7.59671C7.18801 22.8333 6.79103 22.9699 6.46883 23.2213C6.14663 23.4728 5.91769 23.8247 5.81838 24.2211L3.06838 35.2211C3.00066 35.4914 2.99546 35.7737 3.05317 36.0463C3.11088 36.3189 3.22999 36.5748 3.40143 36.7945C3.57288 37.0142 3.79215 37.1919 4.04259 37.3142C4.29303 37.4364 4.56804 37.5 4.84671 37.5Z" stroke="#15A112" stroke-width="4.16667" stroke-linecap="round" stroke-linejoin="round"/>
</svg>